<svg xmlns="http://www.w3.org/2000/svg" viewBox="0 0 1200 630" role="img" aria-labelledby="title desc">
  <title id="title">कलाnidhi by Rajeev Verma</title>
  <desc id="desc">Cream paper social preview with mandala seal and कलाnidhi wordmark.</desc>
  <rect width="1200" height="630" fill="#F4EFE3"/>
  <rect x="54" y="54" width="1092" height="522" rx="18" fill="#FFF9ED" stroke="#D9C9A3" stroke-width="3"/>
  <g transform="translate(112 105)">
    <circle cx="210" cy="210" r="180" fill="none" stroke="#B07A2A" stroke-width="5"/>
    <circle cx="210" cy="210" r="146" fill="none" stroke="#2E2A27" stroke-width="3"/>
    <path d="M210 27c18 43 47 62 91 50-20 38-16 70 14 102-43-8-74 6-94 43-19-38-48-55-91-50 30-31 37-63 20-102 37 24 69 20 60-43Z" fill="none" stroke="#B07A2A" stroke-width="5" stroke-linejoin="round"/>
    <path d="M151 203c6-55 39-91 83-91 39 0 70 30 70 78 0 72-61 104-113 86-29-10-44-34-40-73Z" fill="none" stroke="#2E2A27" stroke-width="6" stroke-linecap="round"/>
    <path d="M164 196c22-25 66-39 108-16M178 196c7-7 18-7 25 0m45 0c7-7 19-7 27 0M199 223c20 11 39 11 58 0M168 283c45 34 109 35 151 1" fill="none" stroke="#2E2A27" stroke-width="6" stroke-linecap="round"/>
  </g>
  <g transform="translate(500 205)">
    <text x="0" y="92" font-family="'Noto Serif Devanagari', 'Nirmala UI', Georgia, serif" font-size="118" fill="#2E2A27">कला<tspan fill="#B07A2A">nidhi</tspan></text>
    <text x="8" y="170" font-family="Georgia, 'Times New Roman', serif" font-size="50" fill="#2E2A27">by Rajeev Verma</text>
    <text x="8" y="238" font-family="Georgia, 'Times New Roman', serif" font-size="34" letter-spacing="10" fill="#B07A2A">ART • STORIES • HEALING</text>
  </g>
</svg>
